<svg width="347" height="33" viewBox="0 0 347 33" fill="none" xmlns="http://www.w3.org/2000/svg">
<path d="M0.898437 24.0449L0.898437 18.9688C0.883464 17.112 0.943359 13.5706 1.07812 8.34473V7.42383C1.07812 7.25911 1.10807 7.16178 1.16797 7.13184H8.89453C8.9694 7.13184 9.11914 7.41634 9.34375 7.98535C9.57585 8.55436 9.85286 9.28809 10.1748 10.1865C10.5042 11.0775 10.7363 11.6914 10.8711 12.0283L12.4434 16.1387V11.7812C12.4434 11.4069 12.4508 10.7218 12.4658 9.72607C12.4883 8.72282 12.4958 7.94043 12.4883 7.37891C12.4883 7.16927 13.0872 7.06445 14.2852 7.06445C14.6595 7.06445 15.1724 7.07194 15.8237 7.08691C16.4751 7.10189 16.8757 7.10937 17.0254 7.10937H17.8789C17.9987 7.10937 18.0586 7.13184 18.0586 7.17676C18.1035 9.25814 18.126 12.238 18.126 16.1162V23.9102C18.0736 24.1048 17.834 24.2021 17.4072 24.2021H17.1152C16.7259 24.2021 16.1532 24.2096 15.397 24.2246C14.6408 24.2396 14.068 24.2471 13.6787 24.2471H10.377C10.2721 24.2096 10.055 23.738 9.72559 22.832C9.3737 21.8512 8.84961 20.4325 8.15332 18.5757C7.45703 16.7189 7.06771 15.682 6.98535 15.4648C6.98535 15.9066 6.98161 16.5654 6.97412 17.4414C6.96663 18.3174 6.96289 18.9762 6.96289 19.418C6.96289 19.7474 6.97038 20.2415 6.98535 20.9004C7.00033 21.5592 7.00781 22.0534 7.00781 22.3828V23.7979C7.00781 24.1423 6.85807 24.3145 6.55859 24.3145H1.39258L0.898437 24.0449ZM18.0586 7.1543V7.19922V7.1543ZM22.6533 15.5547V14.3193C22.7282 13.2712 22.9565 12.3166 23.3384 11.4556C23.7202 10.5871 24.2031 9.8571 24.7871 9.26562C25.3786 8.67415 26.0599 8.17627 26.8311 7.77197C27.6022 7.36019 28.4071 7.06071 29.2456 6.87354C30.0916 6.68636 30.9639 6.59277 31.8623 6.59277C32.3564 6.59277 32.8693 6.63395 33.4009 6.71631C33.9399 6.79867 34.509 6.92969 35.1079 7.10937C35.7069 7.28906 36.2796 7.55485 36.8262 7.90674C37.3802 8.25114 37.8369 8.65918 38.1963 9.13086C38.9375 10.0368 39.4728 10.9876 39.8022 11.9834C40.1392 12.9717 40.3076 14.0723 40.3076 15.2852C40.3301 17.8158 39.776 19.8522 38.6455 21.3945L38.1514 22.0684C37.7171 22.6673 37.0957 23.1689 36.2871 23.5732C35.4785 23.9701 34.6699 24.2433 33.8613 24.3931C33.0527 24.5503 32.2367 24.6289 31.4131 24.6289C30.4473 24.6289 29.5563 24.5316 28.7402 24.3369C27.9242 24.1423 27.2204 23.8802 26.6289 23.5508C26.0374 23.2214 25.5096 22.8208 25.0454 22.3491C24.5812 21.8774 24.1994 21.3796 23.8999 20.8555C23.6079 20.3314 23.3646 19.7624 23.1699 19.1484C22.9827 18.5345 22.848 17.9355 22.7656 17.3516C22.6908 16.7676 22.6533 16.1686 22.6533 15.5547ZM31.5928 11.1074C31.2858 11.1074 31.0088 11.1785 30.7617 11.3208C30.5221 11.4631 30.3237 11.6353 30.1665 11.8374C30.0168 12.0396 29.8857 12.3128 29.7734 12.6572C29.6611 12.9941 29.5788 13.3011 29.5264 13.5781C29.474 13.8477 29.4328 14.1921 29.4028 14.6113C29.3729 15.0231 29.3542 15.3451 29.3467 15.5771C29.3467 15.8018 29.3467 16.0938 29.3467 16.4531C29.3467 16.7975 29.3579 17.127 29.3804 17.4414C29.4103 17.7484 29.4665 18.0778 29.5488 18.4297C29.6387 18.7741 29.751 19.0773 29.8857 19.3394C30.028 19.5939 30.2189 19.811 30.4585 19.9907C30.7056 20.1629 30.9863 20.2565 31.3008 20.2715C31.6302 20.2715 31.9222 20.2191 32.1768 20.1143C32.4313 20.002 32.6447 19.8634 32.8169 19.6987C32.9891 19.5265 33.1351 19.2982 33.2549 19.0137C33.3747 18.7292 33.4645 18.4559 33.5244 18.1938C33.5918 17.9318 33.6405 17.6061 33.6704 17.2168C33.7078 16.8275 33.7303 16.4943 33.7378 16.2173C33.7453 15.9328 33.749 15.5771 33.749 15.1504C33.749 14.8359 33.7378 14.5439 33.7153 14.2744C33.7004 14.0049 33.6704 13.7054 33.6255 13.376C33.5806 13.0465 33.5057 12.7583 33.4009 12.5112C33.2961 12.2567 33.1688 12.0208 33.019 11.8037C32.8693 11.5791 32.6709 11.4069 32.4238 11.2871C32.1842 11.1673 31.9072 11.1074 31.5928 11.1074ZM43.3076 10.5459C43.3076 10.4111 43.3151 10.2127 43.3301 9.95068C43.3451 9.68115 43.3525 9.49772 43.3525 9.40039C43.3525 9.36296 43.3451 9.22819 43.3301 8.99609C43.3151 8.764 43.3076 8.56185 43.3076 8.38965C43.3076 7.59603 43.3825 7.19922 43.5322 7.19922C43.5921 7.19922 43.6445 7.20671 43.6895 7.22168C45.2542 7.22168 47.5715 7.20296 50.6411 7.16553C53.7183 7.12809 56.0205 7.10937 57.5479 7.10937C57.9297 7.10937 58.1693 7.14307 58.2666 7.21045C58.3714 7.27783 58.4238 7.40885 58.4238 7.60352V7.91797C58.4238 8.30729 58.4276 8.88379 58.4351 9.64746C58.4425 10.4036 58.4463 10.9801 58.4463 11.377C58.4463 11.7663 58.3415 11.9609 58.1318 11.9609C57.7126 11.9609 57.0874 11.9535 56.2563 11.9385C55.4253 11.9235 54.8001 11.916 54.3809 11.916V23.9551C54.3285 24.1797 54.2012 24.2995 53.999 24.3145C53.737 24.3145 53.3551 24.3107 52.8535 24.3032C52.3519 24.2957 51.9701 24.292 51.708 24.292C51.693 24.292 51.6781 24.2995 51.6631 24.3145C51.3337 24.3145 50.8695 24.3107 50.2705 24.3032C49.679 24.2957 49.2373 24.292 48.9453 24.292H48.2715C48.1217 24.307 47.9046 24.3145 47.6201 24.3145L47.1709 23.7754C47.1709 22.6374 47.2083 20.9453 47.2832 18.6992C47.3581 16.4531 47.3955 14.7611 47.3955 13.623C47.3955 13.5706 47.3918 13.4845 47.3843 13.3647C47.3843 13.245 47.3843 13.1476 47.3843 13.0728C47.3843 12.9979 47.3768 12.9043 47.3618 12.792C47.3543 12.6797 47.3356 12.5898 47.3057 12.5225C47.2832 12.4476 47.2533 12.3765 47.2158 12.3091C47.1784 12.2342 47.126 12.1818 47.0586 12.1519C46.9987 12.1144 46.9238 12.0957 46.834 12.0957H43.6221C43.4124 12.0358 43.3076 11.5192 43.3076 10.5459ZM78.7188 24.0449C78.554 24.2096 78.2059 24.307 77.6743 24.3369C77.1502 24.3669 76.5026 24.3594 75.7314 24.3145C74.9603 24.2695 74.5485 24.2471 74.4961 24.2471C73.987 24.2471 73.6201 24.2396 73.3955 24.2246H72.2725C72.1077 24.1722 71.9692 23.9289 71.8569 23.4946C71.7446 23.0529 71.6323 22.424 71.52 21.6079C71.4152 20.7843 71.359 20.3464 71.3516 20.2939C71.3216 19.5527 71.2018 19.0661 70.9922 18.834C70.7826 18.5944 70.4007 18.4746 69.8467 18.4746H69.3525V23.9551C69.3376 24.0449 69.259 24.1198 69.1167 24.1797C68.9744 24.2396 68.7686 24.277 68.499 24.292C68.237 24.3145 68.0011 24.3257 67.7915 24.3257C67.5894 24.3332 67.3198 24.3332 66.9829 24.3257C66.646 24.3182 66.4401 24.3145 66.3652 24.3145H64.748C63.8346 24.3145 63.1458 24.3219 62.6816 24.3369C62.5768 24.292 62.472 24.2396 62.3672 24.1797V7.42383C62.3672 7.21419 62.6667 7.10937 63.2656 7.10937H73.0586C74.7581 7.1543 76.0496 7.55859 76.9331 8.32227C77.8241 9.08594 78.2695 10.1641 78.2695 11.5566C78.2695 13.3685 77.3561 14.6937 75.5293 15.5322C75.8662 15.637 76.1694 15.783 76.439 15.9702C76.7085 16.1574 76.9331 16.3595 77.1128 16.5767C77.2925 16.7863 77.4497 17.0409 77.5845 17.3403C77.7192 17.6398 77.8241 17.9206 77.8989 18.1826C77.9738 18.4447 78.0374 18.7554 78.0898 19.1147C78.1497 19.4741 78.1909 19.7848 78.2134 20.0469C78.2358 20.3089 78.262 20.6234 78.292 20.9902C78.3294 21.3496 78.3594 21.6341 78.3818 21.8437V22.832C78.4043 22.9518 78.4717 23.1203 78.584 23.3374C78.7038 23.5545 78.7786 23.7155 78.8086 23.8203C78.8086 23.9701 78.7786 24.0449 78.7188 24.0449ZM69.2852 11.8711C69.2852 12.3203 69.2889 12.6535 69.2964 12.8706C69.3039 13.0877 69.3451 13.3722 69.4199 13.7241C69.4948 14.076 69.6071 14.3268 69.7568 14.4766C70.0713 14.4766 70.367 14.4429 70.644 14.3755C70.9285 14.3081 71.2018 14.1995 71.4639 14.0498C71.7259 13.9001 71.9318 13.6792 72.0815 13.3872C72.2388 13.0877 72.3174 12.7321 72.3174 12.3203C72.3174 12.0882 72.2762 11.8861 72.1938 11.7139C72.1115 11.5342 71.9917 11.3919 71.8345 11.2871C71.6772 11.1823 71.52 11.0999 71.3628 11.04C71.2131 10.9727 71.0259 10.9277 70.8013 10.9053C70.5841 10.8753 70.4119 10.8566 70.2847 10.8491C70.1574 10.8416 70.0039 10.8379 69.8242 10.8379H69.5547C69.4424 10.8903 69.3675 10.9951 69.3301 11.1523C69.3001 11.3096 69.2852 11.5492 69.2852 11.8711ZM82.8418 23.5957V23.1689C82.8418 21.8887 82.8568 19.9982 82.8867 17.4976C82.9167 14.9969 82.9316 13.1064 82.9316 11.8262V7.17676H96.0039V10.8604C96.0039 10.8828 96.0039 10.939 96.0039 11.0288C96.0039 11.1187 96.0039 11.1785 96.0039 11.2085C96.0039 11.2384 96.0002 11.2946 95.9927 11.377C95.9852 11.4518 95.9702 11.5042 95.9478 11.5342C95.9328 11.5641 95.9066 11.609 95.8691 11.6689C95.8392 11.7214 95.8018 11.7588 95.7568 11.7812C95.7119 11.8037 95.652 11.8262 95.5771 11.8486C95.5023 11.8636 95.4199 11.8711 95.3301 11.8711H95.0156C93.0765 11.8711 91.3096 11.8411 89.7148 11.7812C89.6999 11.901 89.6737 12.0882 89.6362 12.3428C89.6063 12.5898 89.5801 12.8107 89.5576 13.0054C89.5426 13.1925 89.5352 13.376 89.5352 13.5557H94.8809C95.1055 13.5557 95.2552 13.5856 95.3301 13.6455C95.4049 13.7054 95.4424 13.8027 95.4424 13.9375C95.4424 13.9749 95.4386 14.0348 95.4312 14.1172C95.4237 14.1995 95.4199 14.2594 95.4199 14.2969C95.4199 14.6562 95.4312 15.1878 95.4536 15.8916C95.4761 16.5954 95.4873 17.127 95.4873 17.4863C95.4648 17.6361 95.4049 17.7109 95.3076 17.7109C95.2627 17.7109 95.2253 17.696 95.1953 17.666C92.8294 17.7858 91.0775 17.8457 89.9395 17.8457H89.6475V19.4629C90.3138 19.4629 91.2759 19.4329 92.5337 19.373C93.799 19.3132 94.7461 19.2832 95.375 19.2832C95.8691 19.2832 96.1536 19.388 96.2285 19.5977V20.4512C96.2285 20.8105 96.236 21.3421 96.251 22.0459C96.266 22.7497 96.2734 23.2812 96.2734 23.6406C96.2734 24.015 96.1237 24.2021 95.8242 24.2021C95.4349 24.2021 94.8359 24.1984 94.0273 24.1909C93.2188 24.1834 92.6048 24.1797 92.1855 24.1797C91.1074 24.1797 89.5651 24.2059 87.5586 24.2583C85.5521 24.3182 84.0996 24.3519 83.2012 24.3594L82.8867 24C82.8568 23.7904 82.8418 23.6556 82.8418 23.5957ZM133.067 19.7998C133.067 19.9346 133.075 20.1442 133.09 20.4287C133.105 20.7057 133.116 20.9715 133.124 21.2261C133.131 21.4806 133.135 21.7651 133.135 22.0796C133.142 22.3866 133.131 22.6673 133.101 22.9219C133.079 23.1689 133.041 23.4048 132.989 23.6294C132.936 23.8465 132.854 24.015 132.742 24.1348C132.637 24.2546 132.506 24.3145 132.349 24.3145L127.228 24.3145C126.868 24.0374 126.688 23.0042 126.688 21.2148C126.688 20.5635 126.692 19.7811 126.7 18.8677C126.707 17.9468 126.711 17.2917 126.711 16.9023V16.1162C126.711 16.0488 126.703 15.9215 126.688 15.7344C126.681 15.5397 126.681 15.39 126.688 15.2852C126.389 16.3708 126.022 17.9243 125.588 19.9458C125.154 21.9673 124.854 23.3187 124.689 24C124.615 24.2096 124.27 24.3145 123.656 24.3145H119.681C119.194 24.3145 118.91 24.1872 118.827 23.9326L117.749 19.2383C117.652 18.7591 117.543 18.2612 117.423 17.7446C117.311 17.228 117.176 16.6403 117.019 15.9814C116.862 15.3226 116.746 14.8359 116.671 14.5215C116.581 16.9173 116.536 18.7441 116.536 20.002V21.9785C116.536 22.862 116.544 23.5283 116.559 23.9775C116.514 24.1423 116.431 24.2246 116.312 24.2246H115.256C114.814 24.2246 114.167 24.2284 113.313 24.2358C112.459 24.2433 111.812 24.2471 111.37 24.2471C110.966 24.2471 110.764 24.1797 110.764 24.0449V7.37891C110.764 7.31152 110.779 7.25537 110.809 7.21045C110.846 7.15804 110.898 7.12061 110.966 7.09814C111.041 7.0682 111.112 7.04574 111.179 7.03076C111.247 7.01579 111.333 7.0083 111.438 7.0083C111.542 7.00081 111.628 6.99707 111.696 6.99707C111.763 6.98958 111.849 6.98958 111.954 6.99707C112.059 6.99707 112.126 6.99707 112.156 6.99707H113.481C115.615 6.99707 117.116 7.02702 117.985 7.08691C118.861 7.14681 119.531 7.17676 119.995 7.17676C120.175 8.18001 120.459 9.66992 120.849 11.6465L121.702 16.1162L123.499 7.04199C123.499 7.04199 123.529 7.04948 123.589 7.06445C123.649 7.07943 123.694 7.08691 123.724 7.08691C124.525 7.08691 125.708 7.07568 127.272 7.05322C128.837 7.03076 130.02 7.01953 130.821 7.01953H132.483C132.693 7.04199 132.798 7.25163 132.798 7.64844C132.963 14.9033 133.052 18.9538 133.067 19.7998ZM136.472 24C136.936 22.2855 137.449 20.5448 138.01 18.7778C138.572 17.0109 139.268 14.8996 140.099 12.4438C140.938 9.98063 141.51 8.27734 141.817 7.33398C141.907 7.18424 141.967 7.0944 141.997 7.06445H143.884C144.326 7.06445 144.977 7.05697 145.838 7.04199C146.699 7.02702 147.35 7.01953 147.792 7.01953H149.679C149.791 7.01953 149.885 7.02327 149.959 7.03076C150.034 7.03076 150.124 7.03825 150.229 7.05322C150.334 7.0682 150.416 7.09066 150.476 7.12061C150.543 7.15055 150.6 7.19548 150.645 7.25537C150.689 7.31527 150.712 7.38639 150.712 7.46875L155.889 23.8765C155.889 24.0262 155.833 24.1273 155.721 24.1797C155.616 24.2396 155.414 24.2695 155.114 24.2695H154.081C153.782 24.2695 153.336 24.2733 152.745 24.2808C152.153 24.2882 151.708 24.292 151.408 24.292C151.318 24.292 151.135 24.2957 150.858 24.3032C150.588 24.3182 150.36 24.3219 150.173 24.3145C149.986 24.3145 149.776 24.3032 149.544 24.2808C149.319 24.2658 149.136 24.2246 148.994 24.1572C148.859 24.0973 148.773 24.015 148.735 23.9102V23.1689C148.66 22.7946 148.529 22.4502 148.342 22.1357C148.155 21.8213 147.957 21.6641 147.747 21.6641H143.884L143.3 24.0449C143.217 24.2246 142.798 24.3145 142.042 24.3145H141.144C140.822 24.3145 140.342 24.3257 139.706 24.3481C139.07 24.3706 138.59 24.3818 138.269 24.3818H137.954C137.834 24.3818 137.643 24.3856 137.381 24.3931C137.127 24.4006 136.928 24.4043 136.786 24.4043C136.726 24.3444 136.621 24.2096 136.472 24ZM144.266 17.1831L144.58 17.7109H145.321C145.92 17.7109 146.467 17.6772 146.961 17.6099C147.463 17.535 147.713 17.4189 147.713 17.2617L146.265 10.793C146.13 10.793 145.946 11.0475 145.714 11.5566C145.49 12.0658 145.306 12.6423 145.164 13.2861L144.266 17.1831ZM159.327 24.292C159.357 22.1133 159.41 20.5186 159.484 19.5078C159.484 16.3633 159.529 13.1738 159.619 9.93945C159.589 9.31055 159.574 8.84635 159.574 8.54687V8.20996C159.544 7.88053 159.529 7.611 159.529 7.40137C159.529 7.25911 159.597 7.13184 159.731 7.01953C160.959 7.10937 162.831 7.1543 165.347 7.1543C165.946 7.1543 166.357 7.13932 166.582 7.10937V24.292H159.327ZM179.038 24.6738C178.155 24.6364 177.361 24.5578 176.657 24.438C175.953 24.3257 175.272 24.1423 174.613 23.8877C173.962 23.6257 173.412 23.3 172.962 22.9106C172.521 22.5138 172.15 22.0085 171.851 21.3945C171.559 20.7806 171.379 20.0693 171.312 19.2607C171.312 19.1185 171.386 19.0361 171.536 19.0137C171.581 19.0286 171.656 19.0361 171.761 19.0361C172.382 19.0361 173.326 19.0212 174.591 18.9912C175.856 18.9613 176.799 18.9463 177.421 18.9463C177.578 18.9463 177.702 18.9987 177.792 19.1035C177.881 19.2008 177.952 19.3244 178.005 19.4741C178.065 19.6164 178.132 19.7624 178.207 19.9121C178.289 20.0544 178.424 20.1779 178.611 20.2827C178.806 20.38 179.053 20.4287 179.353 20.4287C179.719 20.4287 180.041 20.3276 180.318 20.1255C180.603 19.9159 180.745 19.6351 180.745 19.2832C180.745 19.0511 180.625 18.8377 180.386 18.6431C180.146 18.4484 179.828 18.2912 179.431 18.1714C179.042 18.0441 178.667 17.9393 178.308 17.8569C177.956 17.7671 177.593 17.6922 177.219 17.6323C176.844 17.5649 176.627 17.5238 176.567 17.5088C174.748 17.0146 173.438 16.4007 172.637 15.667C171.843 14.9333 171.446 13.93 171.446 12.6572C171.446 11.7588 171.611 10.9539 171.94 10.2427C172.27 9.52393 172.7 8.93994 173.232 8.49072C173.764 8.03402 174.392 7.65592 175.119 7.35645C175.845 7.04948 176.579 6.8361 177.32 6.71631C178.061 6.58903 178.828 6.52539 179.622 6.52539C181.726 6.52539 183.403 6.91471 184.653 7.69336C185.11 8.15007 185.443 8.49821 185.653 8.73779C185.87 8.96989 186.076 9.24316 186.271 9.55762C186.473 9.87207 186.611 10.1828 186.686 10.4897C186.768 10.7892 186.825 11.1598 186.854 11.6016L186.45 12.0059C184.915 12.0658 183.193 12.0957 181.284 12.0957C181.045 12.0957 180.85 12.0695 180.7 12.0171C180.558 11.9647 180.461 11.8973 180.408 11.8149C180.363 11.7326 180.315 11.6465 180.262 11.5566C180.217 11.4668 180.172 11.3807 180.127 11.2983C180.09 11.216 180.004 11.1486 179.869 11.0962C179.742 11.0438 179.57 11.0176 179.353 11.0176C179.293 11.0176 179.195 11.0288 179.061 11.0513C178.933 11.0737 178.78 11.1112 178.6 11.1636C178.428 11.2085 178.278 11.2834 178.151 11.3882C178.024 11.4855 177.96 11.6016 177.96 11.7363C177.96 11.901 178.042 12.0508 178.207 12.1855C178.379 12.3203 178.559 12.4176 178.746 12.4775C178.933 12.5374 179.165 12.6048 179.442 12.6797C179.719 12.7471 179.892 12.792 179.959 12.8145C181.591 13.2262 182.564 13.4808 182.879 13.5781C184.519 14.0947 185.679 14.7723 186.36 15.6108C186.989 16.3895 187.304 17.3665 187.304 18.542C187.304 19.2533 187.21 19.9009 187.023 20.4849C186.843 21.0688 186.604 21.563 186.304 21.9673C186.005 22.3716 185.63 22.731 185.181 23.0454C184.732 23.3599 184.275 23.6107 183.811 23.7979C183.354 23.985 182.834 24.1423 182.25 24.2695C181.666 24.3968 181.127 24.4867 180.633 24.5391C180.146 24.599 179.615 24.6439 179.038 24.6738ZM190.798 15.5547V14.3193C190.873 13.2712 191.101 12.3166 191.483 11.4556C191.865 10.5871 192.348 9.8571 192.932 9.26562C193.523 8.67415 194.204 8.17627 194.976 7.77197C195.747 7.36019 196.552 7.06071 197.39 6.87354C198.236 6.68636 199.108 6.59277 200.007 6.59277C200.501 6.59277 201.014 6.63395 201.545 6.71631C202.084 6.79867 202.653 6.92969 203.252 7.10937C203.851 7.28906 204.424 7.55485 204.971 7.90674C205.525 8.25114 205.981 8.65918 206.341 9.13086C207.082 10.0368 207.617 10.9876 207.947 11.9834C208.284 12.9717 208.452 14.0723 208.452 15.2852C208.475 17.8158 207.921 19.8522 206.79 21.3945L206.296 22.0684C205.862 22.6673 205.24 23.1689 204.432 23.5732C203.623 23.9701 202.814 24.2433 202.006 24.3931C201.197 24.5503 200.381 24.6289 199.558 24.6289C198.592 24.6289 197.701 24.5316 196.885 24.3369C196.069 24.1423 195.365 23.8802 194.773 23.5508C194.182 23.2214 193.654 22.8208 193.19 22.3491C192.726 21.8774 192.344 21.3796 192.044 20.8555C191.752 20.3314 191.509 19.7624 191.314 19.1484C191.127 18.5345 190.993 17.9355 190.91 17.3516C190.835 16.7676 190.798 16.1686 190.798 15.5547ZM199.737 11.1074C199.43 11.1074 199.153 11.1785 198.906 11.3208C198.667 11.4631 198.468 11.6353 198.311 11.8374C198.161 12.0396 198.03 12.3128 197.918 12.6572C197.806 12.9941 197.723 13.3011 197.671 13.5781C197.618 13.8477 197.577 14.1921 197.547 14.6113C197.517 15.0231 197.499 15.3451 197.491 15.5771C197.491 15.8018 197.491 16.0937 197.491 16.4531C197.491 16.7975 197.502 17.127 197.525 17.4414C197.555 17.7484 197.611 18.0778 197.693 18.4297C197.783 18.7741 197.896 19.0773 198.03 19.3394C198.173 19.5939 198.363 19.811 198.603 19.9907C198.85 20.1629 199.131 20.2565 199.445 20.2715C199.775 20.2715 200.067 20.2191 200.321 20.1143C200.576 20.002 200.789 19.8634 200.961 19.6987C201.134 19.5265 201.28 19.2982 201.399 19.0137C201.519 18.7292 201.609 18.4559 201.669 18.1938C201.736 17.9318 201.785 17.6061 201.815 17.2168C201.852 16.8275 201.875 16.4943 201.882 16.2173C201.89 15.9328 201.894 15.5771 201.894 15.1504C201.894 14.8359 201.882 14.5439 201.86 14.2744C201.845 14.0049 201.815 13.7054 201.77 13.376C201.725 13.0465 201.65 12.7583 201.545 12.5112C201.441 12.2567 201.313 12.0208 201.164 11.8037C201.014 11.5791 200.815 11.4069 200.568 11.2871C200.329 11.1673 200.052 11.1074 199.737 11.1074ZM212.89 24.0449V18.9687C212.875 17.112 212.935 13.5706 213.069 8.34473V7.42383C213.069 7.25911 213.099 7.16178 213.159 7.13184H220.886C220.961 7.13184 221.11 7.41634 221.335 7.98535C221.567 8.55436 221.844 9.28809 222.166 10.1865C222.495 11.0775 222.728 11.6914 222.862 12.0283L224.435 16.1387V11.7812C224.435 11.4069 224.442 10.7218 224.457 9.72607C224.479 8.72282 224.487 7.94043 224.479 7.37891C224.479 7.16927 225.078 7.06445 226.276 7.06445C226.651 7.06445 227.164 7.07194 227.815 7.08691C228.466 7.10189 228.867 7.10937 229.017 7.10937H229.87C229.99 7.10937 230.05 7.13184 230.05 7.17676C230.095 9.25814 230.117 12.238 230.117 16.1162V23.9102C230.065 24.1048 229.825 24.2021 229.398 24.2021H229.106C228.717 24.2021 228.144 24.2096 227.388 24.2246C226.632 24.2396 226.059 24.2471 225.67 24.2471H222.368C222.263 24.2096 222.046 23.738 221.717 22.832C221.365 21.8512 220.841 20.4325 220.145 18.5757C219.448 16.7189 219.059 15.682 218.977 15.4648C218.977 15.9066 218.973 16.5654 218.965 17.4414C218.958 18.3174 218.954 18.9762 218.954 19.418C218.954 19.7474 218.962 20.2415 218.977 20.9004C218.992 21.5592 218.999 22.0534 218.999 22.3828V23.7979C218.999 24.1423 218.849 24.3145 218.55 24.3145L213.384 24.3145L212.89 24.0449ZM230.05 7.1543V7.19922V7.1543ZM245.326 22.4727V7.35645L255.029 7.01953C255.628 7.01953 256.19 7.05697 256.714 7.13184C257.238 7.20671 257.766 7.34896 258.297 7.55859C258.836 7.76074 259.293 8.02653 259.667 8.35596C260.049 8.6779 260.36 9.1084 260.6 9.64746C260.839 10.1865 260.959 10.8079 260.959 11.5117C260.959 12.4476 260.753 13.2075 260.341 13.7915C259.93 14.368 259.312 14.8809 258.488 15.3301C259.454 15.5996 260.188 16.0675 260.689 16.7339C261.199 17.3927 261.453 18.2275 261.453 19.2383C261.453 19.987 261.311 20.6608 261.026 21.2598C260.742 21.8512 260.375 22.3341 259.926 22.7085C259.477 23.0828 258.949 23.3936 258.342 23.6406C257.736 23.8877 257.133 24.0599 256.534 24.1572C255.943 24.262 255.336 24.3145 254.715 24.3145C254.355 24.3145 253.813 24.307 253.086 24.292C252.368 24.277 251.825 24.2695 251.458 24.2695C249.377 24.2695 247.467 24.2995 245.73 24.3594C245.483 23.9626 245.349 23.3337 245.326 22.4727ZM251.772 11.1074C251.772 11.4443 251.784 11.946 251.806 12.6123C251.829 13.2786 251.84 13.7803 251.84 14.1172C251.84 14.2594 251.93 14.3418 252.109 14.3643C252.214 14.3493 252.394 14.3268 252.648 14.2969C252.91 14.2594 253.116 14.2295 253.266 14.207C253.416 14.1846 253.596 14.1322 253.805 14.0498C254.022 13.96 254.191 13.8551 254.311 13.7354C254.43 13.6156 254.535 13.4434 254.625 13.2187C254.715 12.9867 254.76 12.7171 254.76 12.4102C254.76 11.2721 253.974 10.7031 252.401 10.7031C252.087 10.7555 251.903 10.8079 251.851 10.8604C251.799 10.9202 251.772 11.0026 251.772 11.1074ZM251.975 19.665C251.975 20.2191 252.005 20.4961 252.064 20.4961H252.424C252.716 20.4961 252.967 20.4886 253.176 20.4736C253.393 20.4512 253.625 20.4025 253.873 20.3276C254.12 20.2528 254.318 20.1517 254.468 20.0244C254.618 19.8896 254.745 19.7025 254.85 19.4629C254.954 19.2233 255.007 18.9388 255.007 18.6094C255.007 18.4222 254.988 18.25 254.951 18.0928C254.913 17.9355 254.853 17.8008 254.771 17.6885C254.689 17.5762 254.606 17.4788 254.524 17.3965C254.449 17.3141 254.337 17.2467 254.187 17.1943C254.045 17.1344 253.925 17.0895 253.828 17.0596C253.738 17.0221 253.599 16.9922 253.412 16.9697C253.225 16.9473 253.09 16.9323 253.008 16.9248C252.925 16.9173 252.783 16.9098 252.581 16.9023C252.379 16.8874 252.252 16.8799 252.199 16.8799V17.3066C252.192 17.389 252.151 17.666 252.076 18.1377C252.008 18.6094 251.975 18.9837 251.975 19.2607V19.665ZM282.354 24.0449C282.19 24.2096 281.842 24.307 281.31 24.3369C280.786 24.3669 280.138 24.3594 279.367 24.3145C278.596 24.2695 278.184 24.2471 278.132 24.2471C277.623 24.2471 277.256 24.2396 277.031 24.2246H275.908C275.743 24.1722 275.605 23.9289 275.493 23.4946C275.38 23.0529 275.268 22.424 275.156 21.6079C275.051 20.7843 274.995 20.3464 274.987 20.2939C274.957 19.5527 274.838 19.0661 274.628 18.834C274.418 18.5944 274.036 18.4746 273.482 18.4746H272.988V23.9551C272.973 24.0449 272.895 24.1198 272.752 24.1797C272.61 24.2396 272.404 24.277 272.135 24.292C271.873 24.3145 271.637 24.3257 271.427 24.3257C271.225 24.3332 270.956 24.3332 270.619 24.3257C270.282 24.3182 270.076 24.3145 270.001 24.3145H268.384C267.47 24.3145 266.782 24.3219 266.317 24.3369C266.213 24.292 266.108 24.2396 266.003 24.1797V7.42383C266.003 7.21419 266.302 7.10937 266.901 7.10937L276.694 7.10937C278.394 7.1543 279.685 7.55859 280.569 8.32227C281.46 9.08594 281.905 10.1641 281.905 11.5566C281.905 13.3685 280.992 14.6937 279.165 15.5322C279.502 15.637 279.805 15.783 280.075 15.9702C280.344 16.1574 280.569 16.3595 280.749 16.5767C280.928 16.7863 281.085 17.0409 281.22 17.3403C281.355 17.6398 281.46 17.9206 281.535 18.1826C281.61 18.4447 281.673 18.7554 281.726 19.1147C281.785 19.4741 281.827 19.7848 281.849 20.0469C281.872 20.3089 281.898 20.6234 281.928 20.9902C281.965 21.3496 281.995 21.6341 282.018 21.8437V22.832C282.04 22.9518 282.107 23.1203 282.22 23.3374C282.34 23.5545 282.414 23.7155 282.444 23.8203C282.444 23.9701 282.414 24.0449 282.354 24.0449ZM272.921 11.8711C272.921 12.3203 272.925 12.6535 272.932 12.8706C272.94 13.0877 272.981 13.3722 273.056 13.7241C273.131 14.076 273.243 14.3268 273.393 14.4766C273.707 14.4766 274.003 14.4429 274.28 14.3755C274.564 14.3081 274.838 14.1995 275.1 14.0498C275.362 13.9001 275.568 13.6792 275.717 13.3872C275.875 13.0877 275.953 12.7321 275.953 12.3203C275.953 12.0882 275.912 11.8861 275.83 11.7139C275.747 11.5342 275.627 11.3919 275.47 11.2871C275.313 11.1823 275.156 11.0999 274.999 11.04C274.849 10.9727 274.662 10.9277 274.437 10.9053C274.22 10.8753 274.048 10.8566 273.92 10.8491C273.793 10.8416 273.64 10.8379 273.46 10.8379H273.19C273.078 10.8903 273.003 10.9951 272.966 11.1523C272.936 11.3096 272.921 11.5492 272.921 11.8711ZM289.072 5.30127L291.127 2.4375C291.209 2.34017 291.299 2.21663 291.396 2.06689C291.494 1.90967 291.569 1.80111 291.621 1.74121C291.681 1.68132 291.778 1.61393 291.913 1.53906C292.048 1.46419 292.224 1.41178 292.441 1.38184C292.666 1.35189 292.961 1.32943 293.328 1.31445L297.315 1.20215L300.28 5.34619C300.28 5.41357 300.254 5.47721 300.201 5.53711C300.149 5.58952 300.074 5.63444 299.977 5.67187C299.887 5.70182 299.782 5.7168 299.662 5.7168H298.898C297.701 5.7168 296.622 5.74674 295.664 5.80664C295.492 5.7168 295.346 5.59701 295.226 5.44727C295.106 5.29753 294.983 5.09912 294.855 4.85205C294.736 4.59749 294.653 4.43652 294.608 4.36914C294.578 4.39909 294.496 4.53385 294.361 4.77344C294.227 5.00553 294.081 5.22266 293.923 5.4248C293.766 5.61947 293.628 5.7168 293.508 5.7168L289.981 5.7168C289.742 5.7168 289.528 5.68311 289.341 5.61572C289.162 5.54085 289.072 5.43604 289.072 5.30127ZM286.478 18.4072C286.507 14.7236 286.522 11.9759 286.522 10.1641V10.0293C286.522 9.97689 286.515 9.79346 286.5 9.479C286.485 9.15706 286.478 8.88379 286.478 8.65918C286.478 7.76074 286.552 7.25163 286.702 7.13184C286.74 7.13184 286.796 7.13558 286.871 7.14307C286.945 7.15055 287.002 7.1543 287.039 7.1543C288.297 7.0944 289.757 7.06445 291.419 7.06445L292.946 7.06445C293.006 7.07194 293.085 7.09814 293.182 7.14307C293.287 7.1805 293.358 7.19922 293.396 7.19922C293.403 7.56608 293.418 8.19873 293.44 9.09717C293.47 9.99561 293.489 10.7743 293.497 11.4331C293.512 12.092 293.515 12.7396 293.508 13.376V17.7559C293.508 18.0329 293.515 18.2575 293.53 18.4297C293.545 18.6019 293.579 18.804 293.631 19.0361C293.691 19.2682 293.792 19.4442 293.935 19.564C294.084 19.6763 294.271 19.7324 294.496 19.7324C294.811 19.7324 295.065 19.6014 295.26 19.3394C295.454 19.0698 295.552 18.7591 295.552 18.4072V14.2969C295.544 13.7952 295.548 13.0054 295.563 11.9272C295.585 10.8491 295.589 10.0068 295.574 9.40039V8.5918C295.574 8.50944 295.567 8.3859 295.552 8.22119C295.537 8.04899 295.529 7.91797 295.529 7.82812V7.28906C295.552 7.11686 295.649 7.01204 295.821 6.97461C297.259 6.97461 299.415 6.98958 302.29 7.01953V7.19922H302.784C302.724 8.79395 302.694 10.6507 302.694 12.7695V15.2852C302.694 15.6221 302.687 16.1387 302.672 16.835C302.657 17.5312 302.649 18.0479 302.649 18.3848C302.649 19.3581 302.496 20.2191 302.189 20.9678C301.882 21.7165 301.478 22.3192 300.976 22.7759C300.474 23.2326 299.868 23.6069 299.157 23.8989C298.445 24.1909 297.727 24.3931 297 24.5054C296.274 24.6177 295.492 24.6738 294.653 24.6738C293.845 24.6738 293.085 24.6214 292.374 24.5166C291.67 24.4193 290.955 24.2284 290.229 23.9438C289.502 23.6519 288.877 23.2812 288.353 22.832C287.829 22.3828 287.395 21.7801 287.05 21.0239C286.706 20.2677 286.515 19.3955 286.478 18.4072ZM307.716 8.99609C307.716 7.77572 307.843 7.0944 308.098 6.95215C308.173 6.96712 308.277 6.97461 308.412 6.97461H308.771C309.004 6.97461 309.385 6.96712 309.917 6.95215C310.449 6.93717 310.853 6.92969 311.13 6.92969C312.193 6.92969 313.05 6.97461 313.702 7.06445C314.361 7.14681 314.731 7.30404 314.813 7.53613L314.679 19.126H314.926C315.525 19.096 315.944 19.0848 316.184 19.0923C316.423 19.0923 316.861 19.1073 317.498 19.1372C318.141 19.1597 318.759 19.1709 319.351 19.1709C319.837 19.1709 320.197 19.2008 320.429 19.2607C320.668 19.3132 320.788 19.4255 320.788 19.5977V23.9102C320.691 24.1797 319.021 24.3145 315.779 24.3145H308.008C307.828 24.0524 307.738 23.6331 307.738 23.0566V19.8672C307.738 18.9313 307.746 17.5462 307.761 15.7119C307.776 13.8776 307.783 12.4925 307.783 11.5566C307.783 11.3844 307.772 11.0026 307.75 10.4111C307.727 9.81966 307.716 9.34798 307.716 8.99609ZM324.799 23.5957V23.1689C324.799 21.8887 324.814 19.9982 324.844 17.4976C324.874 14.9969 324.889 13.1064 324.889 11.8262V7.17676L337.961 7.17676V10.8604C337.961 10.8828 337.961 10.939 337.961 11.0288C337.961 11.1187 337.961 11.1785 337.961 11.2085C337.961 11.2384 337.957 11.2946 337.95 11.377C337.942 11.4518 337.927 11.5042 337.905 11.5342C337.89 11.5641 337.864 11.609 337.826 11.6689C337.796 11.7214 337.759 11.7588 337.714 11.7812C337.669 11.8037 337.609 11.8262 337.534 11.8486C337.459 11.8636 337.377 11.8711 337.287 11.8711H336.973C335.034 11.8711 333.267 11.8411 331.672 11.7812C331.657 11.901 331.631 12.0882 331.593 12.3428C331.563 12.5898 331.537 12.8107 331.515 13.0054C331.5 13.1925 331.492 13.376 331.492 13.5557H336.838C337.062 13.5557 337.212 13.5856 337.287 13.6455C337.362 13.7054 337.399 13.8027 337.399 13.9375C337.399 13.9749 337.396 14.0348 337.388 14.1172C337.381 14.1995 337.377 14.2594 337.377 14.2969C337.377 14.6562 337.388 15.1878 337.411 15.8916C337.433 16.5954 337.444 17.127 337.444 17.4863C337.422 17.6361 337.362 17.7109 337.265 17.7109C337.22 17.7109 337.182 17.696 337.152 17.666C334.786 17.7858 333.035 17.8457 331.896 17.8457H331.604V19.4629C332.271 19.4629 333.233 19.4329 334.491 19.373C335.756 19.3132 336.703 19.2832 337.332 19.2832C337.826 19.2832 338.111 19.388 338.186 19.5977V20.4512C338.186 20.8105 338.193 21.3421 338.208 22.0459C338.223 22.7497 338.23 23.2812 338.23 23.6406C338.23 24.015 338.081 24.2021 337.781 24.2021C337.392 24.2021 336.793 24.1984 335.984 24.1909C335.176 24.1834 334.562 24.1797 334.143 24.1797C333.064 24.1797 331.522 24.2059 329.516 24.2583C327.509 24.3182 326.057 24.3519 325.158 24.3594L324.844 24C324.814 23.7904 324.799 23.6556 324.799 23.5957Z" fill="white"/>
</svg>
